<mxfile host="app.diagrams.net" agent="Mozilla/5.0 (Windows NT 10.0; Win64; x64) AppleWebKit/537.36 (KHTML, like Gecko) Chrome/131.0.0.0 Safari/537.36" version="25.0.3">
  <diagram name="หน้า-1" id="6EhKGGv0J96CLOM4P_8w">
    <mxGraphModel dx="1034" dy="446" grid="1" gridSize="10" guides="1" tooltips="1" connect="1" arrows="1" fold="1" page="1" pageScale="1" pageWidth="827" pageHeight="1169" math="0" shadow="0">
      <root>
        <mxCell id="0" />
        <mxCell id="1" parent="0" />
        <mxCell id="WT_wRdQyAJfvBAXUWVYF-3" value="" style="edgeStyle=orthogonalEdgeStyle;rounded=0;orthogonalLoop=1;jettySize=auto;html=1;" edge="1" parent="1" source="WT_wRdQyAJfvBAXUWVYF-1" target="WT_wRdQyAJfvBAXUWVYF-2">
          <mxGeometry relative="1" as="geometry" />
        </mxCell>
        <mxCell id="WT_wRdQyAJfvBAXUWVYF-1" value="start" style="ellipse;whiteSpace=wrap;html=1;" vertex="1" parent="1">
          <mxGeometry x="350" y="90" width="120" height="80" as="geometry" />
        </mxCell>
        <mxCell id="WT_wRdQyAJfvBAXUWVYF-5" value="" style="edgeStyle=orthogonalEdgeStyle;rounded=0;orthogonalLoop=1;jettySize=auto;html=1;" edge="1" parent="1" source="WT_wRdQyAJfvBAXUWVYF-2" target="WT_wRdQyAJfvBAXUWVYF-4">
          <mxGeometry relative="1" as="geometry" />
        </mxCell>
        <mxCell id="WT_wRdQyAJfvBAXUWVYF-2" value="สร้าง struct Employee" style="whiteSpace=wrap;html=1;" vertex="1" parent="1">
          <mxGeometry x="350" y="260" width="120" height="60" as="geometry" />
        </mxCell>
        <mxCell id="WT_wRdQyAJfvBAXUWVYF-7" value="" style="edgeStyle=orthogonalEdgeStyle;rounded=0;orthogonalLoop=1;jettySize=auto;html=1;" edge="1" parent="1" source="WT_wRdQyAJfvBAXUWVYF-4" target="WT_wRdQyAJfvBAXUWVYF-6">
          <mxGeometry relative="1" as="geometry" />
        </mxCell>
        <mxCell id="WT_wRdQyAJfvBAXUWVYF-4" value="กำหนดตัวแปร&lt;div&gt;&lt;code&gt;employees&lt;/code&gt;, &lt;code&gt;multiplierCounts&lt;/code&gt;, &lt;code&gt;count&lt;/code&gt;, &lt;code&gt;minIndex&lt;/code&gt;, &lt;code&gt;maxIndex&lt;/code&gt;&lt;/div&gt;" style="whiteSpace=wrap;html=1;" vertex="1" parent="1">
          <mxGeometry x="305" y="400" width="210" height="130" as="geometry" />
        </mxCell>
        <mxCell id="WT_wRdQyAJfvBAXUWVYF-9" value="" style="edgeStyle=orthogonalEdgeStyle;rounded=0;orthogonalLoop=1;jettySize=auto;html=1;" edge="1" parent="1" source="WT_wRdQyAJfvBAXUWVYF-6" target="WT_wRdQyAJfvBAXUWVYF-8">
          <mxGeometry relative="1" as="geometry" />
        </mxCell>
        <mxCell id="WT_wRdQyAJfvBAXUWVYF-6" value="รับค่าจากผู้ใช้&lt;div&gt;ชื่อ และ ค่า exp&lt;/div&gt;" style="shape=parallelogram;perimeter=parallelogramPerimeter;whiteSpace=wrap;html=1;fixedSize=1;" vertex="1" parent="1">
          <mxGeometry x="350" y="645" width="120" height="60" as="geometry" />
        </mxCell>
        <mxCell id="WT_wRdQyAJfvBAXUWVYF-15" value="" style="edgeStyle=orthogonalEdgeStyle;rounded=0;orthogonalLoop=1;jettySize=auto;html=1;" edge="1" parent="1" source="WT_wRdQyAJfvBAXUWVYF-8" target="WT_wRdQyAJfvBAXUWVYF-14">
          <mxGeometry relative="1" as="geometry" />
        </mxCell>
        <mxCell id="WT_wRdQyAJfvBAXUWVYF-8" value="ผู้ใช้กรอก -1 ?" style="rhombus;whiteSpace=wrap;html=1;" vertex="1" parent="1">
          <mxGeometry x="370" y="775" width="80" height="80" as="geometry" />
        </mxCell>
        <mxCell id="WT_wRdQyAJfvBAXUWVYF-10" value="" style="shape=waypoint;sketch=0;fillStyle=solid;size=6;pointerEvents=1;points=[];fillColor=none;resizable=0;rotatable=0;perimeter=centerPerimeter;snapToPoint=1;" vertex="1" parent="1">
          <mxGeometry x="400" y="565" width="20" height="20" as="geometry" />
        </mxCell>
        <mxCell id="WT_wRdQyAJfvBAXUWVYF-11" style="edgeStyle=orthogonalEdgeStyle;rounded=0;orthogonalLoop=1;jettySize=auto;html=1;exitX=0.5;exitY=1;exitDx=0;exitDy=0;entryX=0.55;entryY=1.05;entryDx=0;entryDy=0;entryPerimeter=0;" edge="1" parent="1" source="WT_wRdQyAJfvBAXUWVYF-8" target="WT_wRdQyAJfvBAXUWVYF-10">
          <mxGeometry relative="1" as="geometry">
            <Array as="points">
              <mxPoint x="410" y="875" />
              <mxPoint x="250" y="875" />
              <mxPoint x="250" y="575" />
            </Array>
          </mxGeometry>
        </mxCell>
        <mxCell id="WT_wRdQyAJfvBAXUWVYF-13" value="F" style="text;html=1;align=center;verticalAlign=middle;resizable=0;points=[];autosize=1;strokeColor=none;fillColor=none;" vertex="1" parent="1">
          <mxGeometry x="335" y="828" width="30" height="30" as="geometry" />
        </mxCell>
        <mxCell id="WT_wRdQyAJfvBAXUWVYF-17" value="" style="edgeStyle=orthogonalEdgeStyle;rounded=0;orthogonalLoop=1;jettySize=auto;html=1;" edge="1" parent="1" source="WT_wRdQyAJfvBAXUWVYF-14" target="WT_wRdQyAJfvBAXUWVYF-16">
          <mxGeometry relative="1" as="geometry" />
        </mxCell>
        <mxCell id="WT_wRdQyAJfvBAXUWVYF-14" value="คำนวณเงินเดือน" style="whiteSpace=wrap;html=1;" vertex="1" parent="1">
          <mxGeometry x="510" y="785" width="120" height="60" as="geometry" />
        </mxCell>
        <mxCell id="WT_wRdQyAJfvBAXUWVYF-19" value="" style="edgeStyle=orthogonalEdgeStyle;rounded=0;orthogonalLoop=1;jettySize=auto;html=1;" edge="1" parent="1" source="WT_wRdQyAJfvBAXUWVYF-16" target="WT_wRdQyAJfvBAXUWVYF-18">
          <mxGeometry relative="1" as="geometry" />
        </mxCell>
        <mxCell id="WT_wRdQyAJfvBAXUWVYF-16" value="หาพนักงานได้เงินเดือนต่ำ/สูง สุด" style="whiteSpace=wrap;html=1;" vertex="1" parent="1">
          <mxGeometry x="510" y="925" width="120" height="60" as="geometry" />
        </mxCell>
        <mxCell id="WT_wRdQyAJfvBAXUWVYF-22" style="edgeStyle=orthogonalEdgeStyle;rounded=0;orthogonalLoop=1;jettySize=auto;html=1;exitX=0.5;exitY=1;exitDx=0;exitDy=0;entryX=0.5;entryY=0;entryDx=0;entryDy=0;" edge="1" parent="1" source="WT_wRdQyAJfvBAXUWVYF-18" target="WT_wRdQyAJfvBAXUWVYF-21">
          <mxGeometry relative="1" as="geometry" />
        </mxCell>
        <mxCell id="WT_wRdQyAJfvBAXUWVYF-18" value="แสดงผลลัพธ์" style="shape=parallelogram;perimeter=parallelogramPerimeter;whiteSpace=wrap;html=1;fixedSize=1;" vertex="1" parent="1">
          <mxGeometry x="510" y="1065" width="120" height="60" as="geometry" />
        </mxCell>
        <mxCell id="WT_wRdQyAJfvBAXUWVYF-20" value="T" style="text;html=1;align=center;verticalAlign=middle;resizable=0;points=[];autosize=1;strokeColor=none;fillColor=none;" vertex="1" parent="1">
          <mxGeometry x="445" y="778" width="30" height="30" as="geometry" />
        </mxCell>
        <mxCell id="WT_wRdQyAJfvBAXUWVYF-21" value="end" style="ellipse;whiteSpace=wrap;html=1;" vertex="1" parent="1">
          <mxGeometry x="354" y="1230" width="120" height="80" as="geometry" />
        </mxCell>
      </root>
    </mxGraphModel>
  </diagram>
</mxfile>
